<?xml version="1.0" encoding="UTF-8" standalone="no"?>
<svg
   id="svg67"
   width="32"
   height="32"
   version="1.1"
   viewBox="0 0 32 32"
   xmlns="http://www.w3.org/2000/svg"
   xmlns:svg="http://www.w3.org/2000/svg"
   xmlns:rdf="http://www.w3.org/1999/02/22-rdf-syntax-ns#"
   xmlns:cc="http://creativecommons.org/ns#"
   xmlns:dc="http://purl.org/dc/elements/1.1/">
  <defs
     id="defs52" />
  <metadata
     id="metadata73">
    <rdf:RDF>
      <cc:Work
         rdf:about="">
        <dc:format>image/svg+xml</dc:format>
        <dc:type
           rdf:resource="http://purl.org/dc/dcmitype/StillImage" />
        <dc:title />
      </cc:Work>
    </rdf:RDF>
  </metadata>
  <path
     style="opacity:1;fill:#ffffff"
     id="rect212"
     width="32"
     height="32"
     x="8.8817842e-16"
     y="8.8817842e-16"
     d="m 6,0 h 20 a 6,6 45 0 1 6,6 v 20 a 6,6 135 0 1 -6,6 H 6 A 6,6 45 0 1 0,26 V 6 A 6,6 135 0 1 6,0 Z" />
  <g
     id="g65"
     stroke-width="0.10625">
    <path
       id="polygon59"
       class="w"
       d="m 1,8 h 4 l 2,8 2,-8 h 4 l 2,8 -2,8 -2,-8 -2,8 H 5 Z" />
    <path
       id="polygon61"
       class="slash"
       d="M 18,24 H 14 L 18,8 h 4 z" />
    <path
       id="path63"
       class="p"
       d="m 23,8 h 2 c 3.5208,0 6,2.4792 6,6 0,3.5208 -2.4792,6 -6,6 h -5 l 1,-4 h 4 c 2.8333,0 2.8333,-4 0,-4 h -3 z" />
  </g>
</svg>
